<mxfile host="Electron" agent="Mozilla/5.0 (Windows NT 10.0; Win64; x64) AppleWebKit/537.36 (KHTML, like Gecko) draw.io/25.0.2 Chrome/128.0.6613.186 Electron/32.2.5 Safari/537.36" version="25.0.2">
  <diagram name="Page-1" id="CXU8ST5-WD1z6FmdyZe1">
    <mxGraphModel dx="3500" dy="2070" grid="1" gridSize="10" guides="1" tooltips="1" connect="1" arrows="1" fold="1" page="1" pageScale="1" pageWidth="827" pageHeight="1169" math="0" shadow="0">
      <root>
        <mxCell id="0" />
        <mxCell id="1" parent="0" />
        <mxCell id="42iKQ4YjlmAp90EdSbBY-1" value="" style="rounded=0;whiteSpace=wrap;html=1;" vertex="1" parent="1">
          <mxGeometry x="60" y="80" width="510" height="340" as="geometry" />
        </mxCell>
        <mxCell id="42iKQ4YjlmAp90EdSbBY-2" value="nav" style="rounded=0;whiteSpace=wrap;html=1;" vertex="1" parent="1">
          <mxGeometry x="60" y="80" width="510" height="40" as="geometry" />
        </mxCell>
        <mxCell id="42iKQ4YjlmAp90EdSbBY-3" value="footer" style="rounded=0;whiteSpace=wrap;html=1;" vertex="1" parent="1">
          <mxGeometry x="60" y="380" width="510" height="40" as="geometry" />
        </mxCell>
        <mxCell id="42iKQ4YjlmAp90EdSbBY-4" value="week" style="rounded=0;whiteSpace=wrap;html=1;strokeColor=none;" vertex="1" parent="1">
          <mxGeometry x="270" y="125" width="45" height="30" as="geometry" />
        </mxCell>
        <mxCell id="42iKQ4YjlmAp90EdSbBY-5" value="" style="html=1;shadow=0;dashed=0;align=center;verticalAlign=middle;shape=mxgraph.arrows2.arrow;dy=0.6;dx=40;flipH=1;notch=0;" vertex="1" parent="1">
          <mxGeometry x="190" y="130" width="60" height="20" as="geometry" />
        </mxCell>
        <mxCell id="42iKQ4YjlmAp90EdSbBY-6" value="" style="html=1;shadow=0;dashed=0;align=center;verticalAlign=middle;shape=mxgraph.arrows2.arrow;dy=0.6;dx=40;flipH=1;notch=0;rotation=-180;" vertex="1" parent="1">
          <mxGeometry x="339" y="130" width="60" height="20" as="geometry" />
        </mxCell>
        <mxCell id="42iKQ4YjlmAp90EdSbBY-15" value="" style="group" vertex="1" connectable="0" parent="1">
          <mxGeometry x="70" y="200" width="490" height="230" as="geometry" />
        </mxCell>
        <mxCell id="42iKQ4YjlmAp90EdSbBY-8" value="img" style="whiteSpace=wrap;html=1;aspect=fixed;" vertex="1" parent="42iKQ4YjlmAp90EdSbBY-15">
          <mxGeometry width="90" height="90" as="geometry" />
        </mxCell>
        <mxCell id="42iKQ4YjlmAp90EdSbBY-9" value="" style="rounded=0;whiteSpace=wrap;html=1;" vertex="1" parent="42iKQ4YjlmAp90EdSbBY-15">
          <mxGeometry y="80" width="90" height="70" as="geometry" />
        </mxCell>
        <mxCell id="42iKQ4YjlmAp90EdSbBY-10" value="" style="endArrow=none;dashed=1;html=1;rounded=0;entryX=1;entryY=0;entryDx=0;entryDy=0;exitX=0.044;exitY=0.858;exitDx=0;exitDy=0;exitPerimeter=0;" edge="1" parent="42iKQ4YjlmAp90EdSbBY-15" source="42iKQ4YjlmAp90EdSbBY-8" target="42iKQ4YjlmAp90EdSbBY-8">
          <mxGeometry width="50" height="50" relative="1" as="geometry">
            <mxPoint x="300" y="160" as="sourcePoint" />
            <mxPoint x="350" y="110" as="targetPoint" />
          </mxGeometry>
        </mxCell>
        <mxCell id="42iKQ4YjlmAp90EdSbBY-11" value="" style="endArrow=none;dashed=1;html=1;rounded=0;entryX=0;entryY=0;entryDx=0;entryDy=0;exitX=0.969;exitY=0.84;exitDx=0;exitDy=0;exitPerimeter=0;elbow=vertical;" edge="1" parent="42iKQ4YjlmAp90EdSbBY-15" source="42iKQ4YjlmAp90EdSbBY-8" target="42iKQ4YjlmAp90EdSbBY-8">
          <mxGeometry width="50" height="50" relative="1" as="geometry">
            <mxPoint x="300" y="160" as="sourcePoint" />
            <mxPoint x="350" y="110" as="targetPoint" />
          </mxGeometry>
        </mxCell>
        <mxCell id="42iKQ4YjlmAp90EdSbBY-12" value="lesinfo" style="rounded=0;whiteSpace=wrap;html=1;" vertex="1" parent="42iKQ4YjlmAp90EdSbBY-15">
          <mxGeometry x="10" y="100" width="70" height="20" as="geometry" />
        </mxCell>
        <mxCell id="42iKQ4YjlmAp90EdSbBY-13" value="head" style="text;html=1;align=center;verticalAlign=middle;whiteSpace=wrap;rounded=0;" vertex="1" parent="42iKQ4YjlmAp90EdSbBY-15">
          <mxGeometry y="80" width="50" height="20" as="geometry" />
        </mxCell>
        <mxCell id="42iKQ4YjlmAp90EdSbBY-14" value="btn" style="rounded=0;whiteSpace=wrap;html=1;" vertex="1" parent="42iKQ4YjlmAp90EdSbBY-15">
          <mxGeometry x="15" y="130" width="60" height="20" as="geometry" />
        </mxCell>
        <mxCell id="42iKQ4YjlmAp90EdSbBY-7" value="deze week" style="rounded=0;whiteSpace=wrap;html=1;" vertex="1" parent="1">
          <mxGeometry x="480" y="125" width="80" height="40" as="geometry" />
        </mxCell>
        <mxCell id="42iKQ4YjlmAp90EdSbBY-16" value="" style="group" vertex="1" connectable="0" parent="1">
          <mxGeometry x="200" y="200" width="90" height="150" as="geometry" />
        </mxCell>
        <mxCell id="42iKQ4YjlmAp90EdSbBY-17" value="img" style="whiteSpace=wrap;html=1;aspect=fixed;" vertex="1" parent="42iKQ4YjlmAp90EdSbBY-16">
          <mxGeometry width="90" height="90" as="geometry" />
        </mxCell>
        <mxCell id="42iKQ4YjlmAp90EdSbBY-18" value="" style="rounded=0;whiteSpace=wrap;html=1;" vertex="1" parent="42iKQ4YjlmAp90EdSbBY-16">
          <mxGeometry y="80" width="90" height="70" as="geometry" />
        </mxCell>
        <mxCell id="42iKQ4YjlmAp90EdSbBY-19" value="" style="endArrow=none;dashed=1;html=1;rounded=0;entryX=1;entryY=0;entryDx=0;entryDy=0;exitX=0.044;exitY=0.858;exitDx=0;exitDy=0;exitPerimeter=0;" edge="1" parent="42iKQ4YjlmAp90EdSbBY-16" source="42iKQ4YjlmAp90EdSbBY-17" target="42iKQ4YjlmAp90EdSbBY-17">
          <mxGeometry width="50" height="50" relative="1" as="geometry">
            <mxPoint x="300" y="160" as="sourcePoint" />
            <mxPoint x="350" y="110" as="targetPoint" />
          </mxGeometry>
        </mxCell>
        <mxCell id="42iKQ4YjlmAp90EdSbBY-20" value="" style="endArrow=none;dashed=1;html=1;rounded=0;entryX=0;entryY=0;entryDx=0;entryDy=0;exitX=0.969;exitY=0.84;exitDx=0;exitDy=0;exitPerimeter=0;elbow=vertical;" edge="1" parent="42iKQ4YjlmAp90EdSbBY-16" source="42iKQ4YjlmAp90EdSbBY-17" target="42iKQ4YjlmAp90EdSbBY-17">
          <mxGeometry width="50" height="50" relative="1" as="geometry">
            <mxPoint x="300" y="160" as="sourcePoint" />
            <mxPoint x="350" y="110" as="targetPoint" />
          </mxGeometry>
        </mxCell>
        <mxCell id="42iKQ4YjlmAp90EdSbBY-21" value="lesinfo" style="rounded=0;whiteSpace=wrap;html=1;" vertex="1" parent="42iKQ4YjlmAp90EdSbBY-16">
          <mxGeometry x="10" y="100" width="70" height="20" as="geometry" />
        </mxCell>
        <mxCell id="42iKQ4YjlmAp90EdSbBY-22" value="head" style="text;html=1;align=center;verticalAlign=middle;whiteSpace=wrap;rounded=0;" vertex="1" parent="42iKQ4YjlmAp90EdSbBY-16">
          <mxGeometry y="80" width="50" height="20" as="geometry" />
        </mxCell>
        <mxCell id="42iKQ4YjlmAp90EdSbBY-23" value="btn" style="rounded=0;whiteSpace=wrap;html=1;" vertex="1" parent="42iKQ4YjlmAp90EdSbBY-16">
          <mxGeometry x="15" y="130" width="60" height="20" as="geometry" />
        </mxCell>
        <mxCell id="42iKQ4YjlmAp90EdSbBY-24" value="" style="group" vertex="1" connectable="0" parent="1">
          <mxGeometry x="324" y="200" width="90" height="150" as="geometry" />
        </mxCell>
        <mxCell id="42iKQ4YjlmAp90EdSbBY-25" value="img" style="whiteSpace=wrap;html=1;aspect=fixed;" vertex="1" parent="42iKQ4YjlmAp90EdSbBY-24">
          <mxGeometry width="90" height="90" as="geometry" />
        </mxCell>
        <mxCell id="42iKQ4YjlmAp90EdSbBY-26" value="" style="rounded=0;whiteSpace=wrap;html=1;" vertex="1" parent="42iKQ4YjlmAp90EdSbBY-24">
          <mxGeometry y="80" width="90" height="70" as="geometry" />
        </mxCell>
        <mxCell id="42iKQ4YjlmAp90EdSbBY-27" value="" style="endArrow=none;dashed=1;html=1;rounded=0;entryX=1;entryY=0;entryDx=0;entryDy=0;exitX=0.044;exitY=0.858;exitDx=0;exitDy=0;exitPerimeter=0;" edge="1" parent="42iKQ4YjlmAp90EdSbBY-24" source="42iKQ4YjlmAp90EdSbBY-25" target="42iKQ4YjlmAp90EdSbBY-25">
          <mxGeometry width="50" height="50" relative="1" as="geometry">
            <mxPoint x="300" y="160" as="sourcePoint" />
            <mxPoint x="350" y="110" as="targetPoint" />
          </mxGeometry>
        </mxCell>
        <mxCell id="42iKQ4YjlmAp90EdSbBY-28" value="" style="endArrow=none;dashed=1;html=1;rounded=0;entryX=0;entryY=0;entryDx=0;entryDy=0;exitX=0.969;exitY=0.84;exitDx=0;exitDy=0;exitPerimeter=0;elbow=vertical;" edge="1" parent="42iKQ4YjlmAp90EdSbBY-24" source="42iKQ4YjlmAp90EdSbBY-25" target="42iKQ4YjlmAp90EdSbBY-25">
          <mxGeometry width="50" height="50" relative="1" as="geometry">
            <mxPoint x="300" y="160" as="sourcePoint" />
            <mxPoint x="350" y="110" as="targetPoint" />
          </mxGeometry>
        </mxCell>
        <mxCell id="42iKQ4YjlmAp90EdSbBY-29" value="lesinfo" style="rounded=0;whiteSpace=wrap;html=1;" vertex="1" parent="42iKQ4YjlmAp90EdSbBY-24">
          <mxGeometry x="10" y="100" width="70" height="20" as="geometry" />
        </mxCell>
        <mxCell id="42iKQ4YjlmAp90EdSbBY-30" value="head" style="text;html=1;align=center;verticalAlign=middle;whiteSpace=wrap;rounded=0;" vertex="1" parent="42iKQ4YjlmAp90EdSbBY-24">
          <mxGeometry y="80" width="50" height="20" as="geometry" />
        </mxCell>
        <mxCell id="42iKQ4YjlmAp90EdSbBY-31" value="btn" style="rounded=0;whiteSpace=wrap;html=1;" vertex="1" parent="42iKQ4YjlmAp90EdSbBY-24">
          <mxGeometry x="15" y="130" width="60" height="20" as="geometry" />
        </mxCell>
        <mxCell id="42iKQ4YjlmAp90EdSbBY-32" value="" style="group" vertex="1" connectable="0" parent="1">
          <mxGeometry x="440" y="200" width="90" height="150" as="geometry" />
        </mxCell>
        <mxCell id="42iKQ4YjlmAp90EdSbBY-33" value="img" style="whiteSpace=wrap;html=1;aspect=fixed;" vertex="1" parent="42iKQ4YjlmAp90EdSbBY-32">
          <mxGeometry width="90" height="90" as="geometry" />
        </mxCell>
        <mxCell id="42iKQ4YjlmAp90EdSbBY-34" value="" style="rounded=0;whiteSpace=wrap;html=1;" vertex="1" parent="42iKQ4YjlmAp90EdSbBY-32">
          <mxGeometry y="80" width="90" height="70" as="geometry" />
        </mxCell>
        <mxCell id="42iKQ4YjlmAp90EdSbBY-35" value="" style="endArrow=none;dashed=1;html=1;rounded=0;entryX=1;entryY=0;entryDx=0;entryDy=0;exitX=0.044;exitY=0.858;exitDx=0;exitDy=0;exitPerimeter=0;" edge="1" parent="42iKQ4YjlmAp90EdSbBY-32" source="42iKQ4YjlmAp90EdSbBY-33" target="42iKQ4YjlmAp90EdSbBY-33">
          <mxGeometry width="50" height="50" relative="1" as="geometry">
            <mxPoint x="300" y="160" as="sourcePoint" />
            <mxPoint x="350" y="110" as="targetPoint" />
          </mxGeometry>
        </mxCell>
        <mxCell id="42iKQ4YjlmAp90EdSbBY-36" value="" style="endArrow=none;dashed=1;html=1;rounded=0;entryX=0;entryY=0;entryDx=0;entryDy=0;exitX=0.969;exitY=0.84;exitDx=0;exitDy=0;exitPerimeter=0;elbow=vertical;" edge="1" parent="42iKQ4YjlmAp90EdSbBY-32" source="42iKQ4YjlmAp90EdSbBY-33" target="42iKQ4YjlmAp90EdSbBY-33">
          <mxGeometry width="50" height="50" relative="1" as="geometry">
            <mxPoint x="300" y="160" as="sourcePoint" />
            <mxPoint x="350" y="110" as="targetPoint" />
          </mxGeometry>
        </mxCell>
        <mxCell id="42iKQ4YjlmAp90EdSbBY-37" value="lesinfo" style="rounded=0;whiteSpace=wrap;html=1;" vertex="1" parent="42iKQ4YjlmAp90EdSbBY-32">
          <mxGeometry x="10" y="100" width="70" height="20" as="geometry" />
        </mxCell>
        <mxCell id="42iKQ4YjlmAp90EdSbBY-38" value="head" style="text;html=1;align=center;verticalAlign=middle;whiteSpace=wrap;rounded=0;" vertex="1" parent="42iKQ4YjlmAp90EdSbBY-32">
          <mxGeometry y="80" width="50" height="20" as="geometry" />
        </mxCell>
        <mxCell id="42iKQ4YjlmAp90EdSbBY-39" value="btn" style="rounded=0;whiteSpace=wrap;html=1;" vertex="1" parent="42iKQ4YjlmAp90EdSbBY-32">
          <mxGeometry x="15" y="130" width="60" height="20" as="geometry" />
        </mxCell>
        <mxCell id="42iKQ4YjlmAp90EdSbBY-40" value="Dag" style="text;html=1;align=center;verticalAlign=middle;whiteSpace=wrap;rounded=0;" vertex="1" parent="1">
          <mxGeometry x="60" y="170" width="60" height="30" as="geometry" />
        </mxCell>
        <mxCell id="42iKQ4YjlmAp90EdSbBY-41" value="" style="rounded=0;whiteSpace=wrap;html=1;" vertex="1" parent="1">
          <mxGeometry x="610" y="30" width="200" height="600" as="geometry" />
        </mxCell>
        <mxCell id="42iKQ4YjlmAp90EdSbBY-42" value="nav" style="rounded=0;whiteSpace=wrap;html=1;" vertex="1" parent="1">
          <mxGeometry x="610" y="30" width="200" height="40" as="geometry" />
        </mxCell>
        <mxCell id="42iKQ4YjlmAp90EdSbBY-43" value="footer" style="rounded=0;whiteSpace=wrap;html=1;" vertex="1" parent="1">
          <mxGeometry x="610" y="570" width="200" height="40" as="geometry" />
        </mxCell>
        <mxCell id="42iKQ4YjlmAp90EdSbBY-44" value="week" style="rounded=0;whiteSpace=wrap;html=1;strokeColor=none;" vertex="1" parent="1">
          <mxGeometry x="687.5" y="80" width="45" height="30" as="geometry" />
        </mxCell>
        <mxCell id="42iKQ4YjlmAp90EdSbBY-45" value="" style="html=1;shadow=0;dashed=0;align=center;verticalAlign=middle;shape=mxgraph.arrows2.arrow;dy=0.6;dx=40;flipH=1;notch=0;" vertex="1" parent="1">
          <mxGeometry x="627.5" y="85" width="60" height="20" as="geometry" />
        </mxCell>
        <mxCell id="42iKQ4YjlmAp90EdSbBY-46" value="" style="html=1;shadow=0;dashed=0;align=center;verticalAlign=middle;shape=mxgraph.arrows2.arrow;dy=0.6;dx=40;flipH=1;notch=0;rotation=-180;" vertex="1" parent="1">
          <mxGeometry x="740" y="85" width="60" height="20" as="geometry" />
        </mxCell>
        <mxCell id="42iKQ4YjlmAp90EdSbBY-55" value="deze week" style="rounded=0;whiteSpace=wrap;html=1;" vertex="1" parent="1">
          <mxGeometry x="675" y="115" width="80" height="40" as="geometry" />
        </mxCell>
        <mxCell id="42iKQ4YjlmAp90EdSbBY-56" value="" style="group" vertex="1" connectable="0" parent="1">
          <mxGeometry x="670" y="200" width="90" height="150" as="geometry" />
        </mxCell>
        <mxCell id="42iKQ4YjlmAp90EdSbBY-57" value="img" style="whiteSpace=wrap;html=1;aspect=fixed;" vertex="1" parent="42iKQ4YjlmAp90EdSbBY-56">
          <mxGeometry width="90" height="90" as="geometry" />
        </mxCell>
        <mxCell id="42iKQ4YjlmAp90EdSbBY-58" value="" style="rounded=0;whiteSpace=wrap;html=1;" vertex="1" parent="42iKQ4YjlmAp90EdSbBY-56">
          <mxGeometry y="80" width="90" height="70" as="geometry" />
        </mxCell>
        <mxCell id="42iKQ4YjlmAp90EdSbBY-59" value="" style="endArrow=none;dashed=1;html=1;rounded=0;entryX=1;entryY=0;entryDx=0;entryDy=0;exitX=0.044;exitY=0.858;exitDx=0;exitDy=0;exitPerimeter=0;" edge="1" parent="42iKQ4YjlmAp90EdSbBY-56" source="42iKQ4YjlmAp90EdSbBY-57" target="42iKQ4YjlmAp90EdSbBY-57">
          <mxGeometry width="50" height="50" relative="1" as="geometry">
            <mxPoint x="300" y="160" as="sourcePoint" />
            <mxPoint x="350" y="110" as="targetPoint" />
          </mxGeometry>
        </mxCell>
        <mxCell id="42iKQ4YjlmAp90EdSbBY-60" value="" style="endArrow=none;dashed=1;html=1;rounded=0;entryX=0;entryY=0;entryDx=0;entryDy=0;exitX=0.969;exitY=0.84;exitDx=0;exitDy=0;exitPerimeter=0;elbow=vertical;" edge="1" parent="42iKQ4YjlmAp90EdSbBY-56" source="42iKQ4YjlmAp90EdSbBY-57" target="42iKQ4YjlmAp90EdSbBY-57">
          <mxGeometry width="50" height="50" relative="1" as="geometry">
            <mxPoint x="300" y="160" as="sourcePoint" />
            <mxPoint x="350" y="110" as="targetPoint" />
          </mxGeometry>
        </mxCell>
        <mxCell id="42iKQ4YjlmAp90EdSbBY-61" value="lesinfo" style="rounded=0;whiteSpace=wrap;html=1;" vertex="1" parent="42iKQ4YjlmAp90EdSbBY-56">
          <mxGeometry x="10" y="100" width="70" height="20" as="geometry" />
        </mxCell>
        <mxCell id="42iKQ4YjlmAp90EdSbBY-62" value="head" style="text;html=1;align=center;verticalAlign=middle;whiteSpace=wrap;rounded=0;" vertex="1" parent="42iKQ4YjlmAp90EdSbBY-56">
          <mxGeometry y="80" width="50" height="20" as="geometry" />
        </mxCell>
        <mxCell id="42iKQ4YjlmAp90EdSbBY-63" value="btn" style="rounded=0;whiteSpace=wrap;html=1;" vertex="1" parent="42iKQ4YjlmAp90EdSbBY-56">
          <mxGeometry x="15" y="130" width="60" height="20" as="geometry" />
        </mxCell>
        <mxCell id="42iKQ4YjlmAp90EdSbBY-64" value="" style="group" vertex="1" connectable="0" parent="1">
          <mxGeometry x="670" y="360" width="90" height="150" as="geometry" />
        </mxCell>
        <mxCell id="42iKQ4YjlmAp90EdSbBY-65" value="img" style="whiteSpace=wrap;html=1;aspect=fixed;" vertex="1" parent="42iKQ4YjlmAp90EdSbBY-64">
          <mxGeometry width="90" height="90" as="geometry" />
        </mxCell>
        <mxCell id="42iKQ4YjlmAp90EdSbBY-66" value="" style="rounded=0;whiteSpace=wrap;html=1;" vertex="1" parent="42iKQ4YjlmAp90EdSbBY-64">
          <mxGeometry y="80" width="90" height="70" as="geometry" />
        </mxCell>
        <mxCell id="42iKQ4YjlmAp90EdSbBY-67" value="" style="endArrow=none;dashed=1;html=1;rounded=0;entryX=1;entryY=0;entryDx=0;entryDy=0;exitX=0.044;exitY=0.858;exitDx=0;exitDy=0;exitPerimeter=0;" edge="1" parent="42iKQ4YjlmAp90EdSbBY-64" source="42iKQ4YjlmAp90EdSbBY-65" target="42iKQ4YjlmAp90EdSbBY-65">
          <mxGeometry width="50" height="50" relative="1" as="geometry">
            <mxPoint x="300" y="160" as="sourcePoint" />
            <mxPoint x="350" y="110" as="targetPoint" />
          </mxGeometry>
        </mxCell>
        <mxCell id="42iKQ4YjlmAp90EdSbBY-68" value="" style="endArrow=none;dashed=1;html=1;rounded=0;entryX=0;entryY=0;entryDx=0;entryDy=0;exitX=0.969;exitY=0.84;exitDx=0;exitDy=0;exitPerimeter=0;elbow=vertical;" edge="1" parent="42iKQ4YjlmAp90EdSbBY-64" source="42iKQ4YjlmAp90EdSbBY-65" target="42iKQ4YjlmAp90EdSbBY-65">
          <mxGeometry width="50" height="50" relative="1" as="geometry">
            <mxPoint x="300" y="160" as="sourcePoint" />
            <mxPoint x="350" y="110" as="targetPoint" />
          </mxGeometry>
        </mxCell>
        <mxCell id="42iKQ4YjlmAp90EdSbBY-69" value="lesinfo" style="rounded=0;whiteSpace=wrap;html=1;" vertex="1" parent="42iKQ4YjlmAp90EdSbBY-64">
          <mxGeometry x="10" y="100" width="70" height="20" as="geometry" />
        </mxCell>
        <mxCell id="42iKQ4YjlmAp90EdSbBY-70" value="head" style="text;html=1;align=center;verticalAlign=middle;whiteSpace=wrap;rounded=0;" vertex="1" parent="42iKQ4YjlmAp90EdSbBY-64">
          <mxGeometry y="80" width="50" height="20" as="geometry" />
        </mxCell>
        <mxCell id="42iKQ4YjlmAp90EdSbBY-71" value="btn" style="rounded=0;whiteSpace=wrap;html=1;" vertex="1" parent="42iKQ4YjlmAp90EdSbBY-64">
          <mxGeometry x="15" y="130" width="60" height="20" as="geometry" />
        </mxCell>
        <mxCell id="42iKQ4YjlmAp90EdSbBY-80" value="Dag" style="text;html=1;align=center;verticalAlign=middle;whiteSpace=wrap;rounded=0;" vertex="1" parent="1">
          <mxGeometry x="680" y="165" width="60" height="30" as="geometry" />
        </mxCell>
        <mxCell id="42iKQ4YjlmAp90EdSbBY-83" value="" style="rounded=0;whiteSpace=wrap;html=1;" vertex="1" parent="1">
          <mxGeometry x="110" y="750" width="660" height="240" as="geometry" />
        </mxCell>
        <mxCell id="42iKQ4YjlmAp90EdSbBY-85" value="week" style="rounded=0;whiteSpace=wrap;html=1;strokeColor=none;" vertex="1" parent="1">
          <mxGeometry x="431" y="770" width="45" height="30" as="geometry" />
        </mxCell>
        <mxCell id="42iKQ4YjlmAp90EdSbBY-86" value="" style="html=1;shadow=0;dashed=0;align=center;verticalAlign=middle;shape=mxgraph.arrows2.arrow;dy=0.6;dx=40;flipH=1;notch=0;" vertex="1" parent="1">
          <mxGeometry x="351" y="775" width="60" height="20" as="geometry" />
        </mxCell>
        <mxCell id="42iKQ4YjlmAp90EdSbBY-87" value="" style="html=1;shadow=0;dashed=0;align=center;verticalAlign=middle;shape=mxgraph.arrows2.arrow;dy=0.6;dx=40;flipH=1;notch=0;rotation=-180;" vertex="1" parent="1">
          <mxGeometry x="500" y="775" width="60" height="20" as="geometry" />
        </mxCell>
        <mxCell id="42iKQ4YjlmAp90EdSbBY-88" value="table" style="rounded=0;whiteSpace=wrap;html=1;" vertex="1" parent="1">
          <mxGeometry x="110" y="840" width="660" height="170" as="geometry" />
        </mxCell>
        <mxCell id="42iKQ4YjlmAp90EdSbBY-89" value="deze week" style="rounded=0;whiteSpace=wrap;html=1;" vertex="1" parent="1">
          <mxGeometry x="670" y="765" width="80" height="40" as="geometry" />
        </mxCell>
        <mxCell id="42iKQ4YjlmAp90EdSbBY-90" value="" style="rounded=0;whiteSpace=wrap;html=1;" vertex="1" parent="1">
          <mxGeometry x="790" y="750" width="260" height="240" as="geometry" />
        </mxCell>
        <mxCell id="42iKQ4YjlmAp90EdSbBY-91" value="week" style="rounded=0;whiteSpace=wrap;html=1;strokeColor=none;" vertex="1" parent="1">
          <mxGeometry x="907" y="770" width="45" height="30" as="geometry" />
        </mxCell>
        <mxCell id="42iKQ4YjlmAp90EdSbBY-92" value="" style="html=1;shadow=0;dashed=0;align=center;verticalAlign=middle;shape=mxgraph.arrows2.arrow;dy=0.6;dx=40;flipH=1;notch=0;" vertex="1" parent="1">
          <mxGeometry x="827" y="775" width="60" height="20" as="geometry" />
        </mxCell>
        <mxCell id="42iKQ4YjlmAp90EdSbBY-93" value="" style="html=1;shadow=0;dashed=0;align=center;verticalAlign=middle;shape=mxgraph.arrows2.arrow;dy=0.6;dx=40;flipH=1;notch=0;rotation=-180;" vertex="1" parent="1">
          <mxGeometry x="976" y="775" width="60" height="20" as="geometry" />
        </mxCell>
        <mxCell id="42iKQ4YjlmAp90EdSbBY-94" value="table&lt;div&gt;sidescroll&lt;/div&gt;" style="rounded=0;whiteSpace=wrap;html=1;" vertex="1" parent="1">
          <mxGeometry x="790" y="840" width="260" height="170" as="geometry" />
        </mxCell>
        <mxCell id="42iKQ4YjlmAp90EdSbBY-95" value="deze week" style="rounded=0;whiteSpace=wrap;html=1;" vertex="1" parent="1">
          <mxGeometry x="880" y="800" width="80" height="40" as="geometry" />
        </mxCell>
      </root>
    </mxGraphModel>
  </diagram>
</mxfile>
